<?xml version="1.0" standalone="no"?>
<!DOCTYPE svg PUBLIC "-//W3C//DTD SVG 20010904//EN"
 "http://www.w3.org/TR/2001/REC-SVG-20010904/DTD/svg10.dtd">
<svg version="1.0" xmlns="http://www.w3.org/2000/svg"
 width="1104.000000pt" height="816.000000pt" viewBox="0 0 1104.000000 816.000000"
 preserveAspectRatio="xMidYMid meet">
<metadata>
Created by potrace 1.15, written by Peter Selinger 2001-2017
</metadata>
<g transform="translate(0.000000,816.000000) scale(0.100000,-0.100000)"
fill="#000000" stroke="none">
<path d="M0 7084 l0 -1075 638 5 c766 7 2108 29 2118 35 1 1 16 40 33 89 18
48 36 96 41 107 5 11 39 90 75 175 37 85 103 238 146 340 154 359 163 375 355
697 43 73 95 160 114 194 39 69 177 222 222 245 l28 15 2 -48 c3 -76 6 -106
13 -129 4 -13 1 -27 -9 -36 -8 -9 -13 -18 -10 -21 3 -3 9 -20 14 -39 4 -18 11
-42 16 -52 5 -13 4 -17 -4 -12 -13 7 -25 -27 -24 -67 0 -15 -3 -25 -8 -22 -5
3 -13 -3 -19 -12 -6 -10 -11 -13 -11 -8 0 13 -30 -44 -30 -57 0 -19 -53 -73
-68 -70 -7 2 -11 -1 -8 -7 10 -16 -33 -59 -81 -82 -39 -19 -43 -24 -44 -57 0
-35 -7 -119 -12 -152 -4 -24 -45 -103 -66 -127 -11 -13 -41 -28 -70 -35 -40
-9 -52 -17 -61 -39 -6 -15 -11 -35 -9 -45 1 -11 -1 -26 -5 -34 -6 -14 -14 -62
-18 -115 -1 -11 -15 -33 -30 -50 -15 -16 -28 -35 -28 -41 0 -7 -7 -14 -15 -18
-8 -3 -15 -12 -15 -20 0 -8 -18 -33 -39 -55 -22 -22 -42 -49 -46 -61 -3 -11
-11 -20 -16 -20 -5 0 -9 -7 -9 -15 0 -7 -6 -18 -14 -22 -8 -5 -18 -24 -21 -43
-3 -19 -14 -53 -25 -75 -10 -22 -22 -53 -26 -70 -4 -16 -13 -36 -21 -43 -7 -7
-14 -23 -14 -35 -2 -33 -6 -56 -18 -125 -7 -34 -9 -66 -6 -71 3 -5 0 -40 -6
-78 -12 -77 -12 -74 -8 -130 2 -42 11 -51 58 -59 8 -2 17 -7 20 -13 4 -6 17
-12 29 -14 12 -2 28 -9 34 -15 7 -7 16 -12 21 -12 14 0 37 -27 37 -44 0 -9 8
-16 20 -16 10 0 24 -9 30 -20 6 -11 16 -17 25 -14 9 4 15 0 15 -9 0 -13 5 -13
41 -1 37 13 43 13 70 -6 27 -20 29 -20 29 -3 1 16 2 16 13 2 15 -19 73 -40 91
-33 8 3 17 0 21 -5 3 -6 11 -9 16 -6 5 4 9 1 9 -5 0 -6 4 -8 10 -5 5 3 33 -5
62 -18 29 -13 69 -30 88 -37 41 -14 71 -26 103 -40 12 -6 110 -46 217 -89 107
-43 238 -98 290 -121 52 -23 124 -49 160 -57 36 -8 95 -23 132 -34 36 -10 86
-19 111 -19 55 0 85 -11 149 -53 35 -22 51 -40 55 -60 4 -18 15 -32 29 -38 15
-5 24 -17 24 -30 0 -14 5 -19 14 -16 11 4 13 1 9 -10 -4 -11 -2 -14 5 -9 7 4
12 3 12 -2 0 -5 -10 -14 -23 -19 -22 -10 -24 -7 -40 37 -24 67 -48 73 -92 24
-30 -34 -35 -36 -51 -23 -35 29 0 -18 95 -126 66 -75 116 -122 169 -156 41
-27 79 -49 85 -49 19 0 136 -91 153 -119 19 -31 20 -31 189 -11 44 5 206 12
360 14 154 2 319 10 368 17 88 12 104 23 72 49 -15 13 -22 41 -29 128 -4 50
-3 52 20 52 23 0 24 3 24 63 0 34 3 72 6 84 4 16 2 21 -12 20 -9 -1 -19 5 -22
13 -4 12 -2 13 9 3 10 -8 20 -9 29 -3 11 7 12 10 2 10 -7 0 -10 5 -7 10 3 6 1
11 -4 11 -6 1 -15 3 -21 4 -5 1 -15 3 -21 4 -5 0 -7 6 -3 12 3 6 17 9 30 6 13
-2 24 -1 24 4 0 4 3 15 7 25 4 12 3 15 -5 10 -7 -4 -15 -1 -18 8 -7 18 -44 22
-44 4 0 -6 -3 -8 -7 -5 -3 4 -16 1 -27 -6 -25 -15 -46 -16 -46 -2 0 6 14 14
32 18 24 6 28 11 18 17 -8 5 -17 5 -20 0 -3 -5 -14 -8 -25 -7 -12 1 -20 -5
-23 -18 -6 -36 -12 -46 -22 -40 -8 5 -7 12 2 22 11 14 8 15 -24 11 -27 -3 -34
-1 -28 7 6 7 7 15 3 19 -4 4 -1 11 6 16 9 5 11 15 7 26 -6 15 -9 16 -16 4 -5
-7 -16 -15 -25 -16 -23 -3 -32 -14 -13 -14 9 0 19 -7 22 -16 5 -14 1 -16 -24
-11 -17 4 -30 2 -30 -3 0 -16 -50 -11 -56 5 -5 13 -9 13 -22 3 -13 -11 -14
-10 -10 2 2 8 15 16 27 18 l22 4 -23 20 -23 20 60 -6 c40 -3 55 -2 45 4 -12 8
-12 10 5 10 92 1 341 14 345 17 3 3 -75 3 -173 1 -97 -1 -177 1 -177 6 0 5 -6
4 -13 -2 -7 -6 -39 -11 -71 -11 -51 0 -56 2 -40 14 20 13 71 15 91 2 6 -4 13
-2 15 5 5 14 148 22 148 8 0 -6 9 -6 26 0 18 7 23 7 18 -2 -5 -8 5 -9 36 -5
24 3 46 11 50 18 4 6 12 9 18 5 6 -3 8 2 5 13 -3 11 -15 22 -26 25 -34 9 -40
7 -28 -8 9 -11 6 -15 -14 -18 -14 -3 -25 -1 -25 3 0 5 5 9 10 9 21 0 9 20 -15
26 -37 9 -25 28 19 32 25 2 36 0 31 -7 -3 -6 0 -11 8 -11 8 0 30 -3 48 -7 32
-6 33 -5 19 13 -14 19 -14 19 8 0 12 -11 23 -16 23 -13 1 4 2 11 3 16 2 19 16
24 31 11 9 -7 15 -8 15 -2 0 6 24 10 57 10 43 -1 59 4 70 18 7 10 10 21 6 25
-11 9 -73 -1 -73 -12 0 -5 6 -6 14 -3 8 3 23 1 32 -4 14 -8 7 -10 -31 -11 -28
0 -69 -3 -92 -5 -24 -3 -45 0 -49 6 -4 6 7 9 27 8 60 -3 89 0 89 10 0 6 -6 10
-14 10 -8 0 -18 5 -21 10 -4 7 18 10 66 8 l73 -3 47 112 c49 114 79 167 114
193 29 22 76 38 114 39 27 1 31 -2 22 -12 -13 -16 -5 -27 19 -27 9 0 22 -11
30 -24 10 -20 10 -28 -3 -46 -8 -12 -13 -30 -10 -41 4 -13 0 -19 -11 -19 -15
0 -21 -12 -17 -34 1 -5 -7 -15 -19 -23 -11 -8 -20 -20 -20 -26 0 -17 -66 -145
-81 -157 -17 -14 -28 -52 -30 -101 -2 -30 -7 -59 -12 -66 -5 -7 -3 -21 4 -35
7 -13 13 -27 14 -33 0 -5 11 -25 24 -42 30 -40 42 -33 78 47 l25 55 24 -75
c13 -41 24 -92 24 -112 0 -37 -1 -38 -37 -38 -21 0 -33 -4 -28 -8 6 -4 10 -11
11 -17 1 -34 19 -95 35 -123 19 -33 26 -82 12 -82 -14 1 -43 27 -43 39 0 6 -5
11 -10 11 -6 0 -8 11 -4 25 6 23 3 25 -25 25 -29 0 -106 -41 -123 -65 -4 -5
-2 -15 3 -21 7 -8 6 -15 -2 -20 -7 -4 -9 -3 -6 3 10 16 -35 24 -70 14 -39 -11
-85 -51 -79 -68 3 -7 2 -13 -2 -13 -4 0 -13 -15 -20 -33 -8 -21 -15 -28 -20
-20 -6 10 -110 32 -155 33 -4 0 3 -15 17 -33 15 -19 26 -46 26 -61 0 -35 -26
-97 -48 -115 -15 -12 -14 -13 13 -8 17 2 37 7 46 11 19 8 29 -17 29 -79 l0
-40 20 25 c10 14 29 52 41 85 63 174 56 163 98 170 22 4 56 21 78 39 55 46 92
68 130 76 18 5 33 6 33 3 0 -2 -11 -24 -25 -47 -24 -41 -75 -97 -75 -82 0 4
-6 1 -14 -6 -8 -7 -11 -17 -8 -22 3 -5 0 -6 -5 -3 -6 4 -17 0 -24 -9 -15 -18
-16 -21 -27 -84 -10 -58 -40 -108 -66 -112 -15 -2 -20 -9 -18 -26 2 -16 -4
-25 -25 -32 -15 -6 -43 -28 -62 -48 l-34 -36 24 -226 c14 -124 22 -236 19
-250 -7 -27 5 -26 -155 -20 -40 2 -103 -8 -190 -29 -191 -47 -215 -50 -505
-66 -146 -8 -296 -21 -335 -29 -60 -13 -72 -13 -84 -1 -12 11 -18 11 -41 -7
l-28 -20 -58 40 c-33 22 -97 70 -144 107 -149 118 -617 418 -780 500 -38 19
-71 39 -75 45 -4 6 15 54 40 108 51 107 90 203 87 215 -1 4 3 7 8 7 6 0 10 4
10 10 0 5 16 45 36 87 122 265 137 320 101 381 -29 50 -84 74 -169 75 -27 1
-48 4 -48 8 0 4 -13 5 -29 3 -16 -3 -32 0 -36 6 -3 5 -17 10 -30 10 -13 0 -26
4 -29 9 -5 7 -22 13 -84 27 -8 1 -22 10 -33 19 -10 10 -25 15 -33 12 -8 -3
-17 1 -20 9 -3 9 -11 12 -17 9 -5 -4 -17 1 -24 11 -8 11 -15 15 -15 11 0 -5
-20 3 -44 17 -24 14 -46 23 -49 20 -3 -3 -8 4 -12 15 -3 11 -12 18 -19 15 -7
-3 -27 7 -44 21 -17 14 -37 25 -44 24 -27 -3 -38 2 -38 18 0 13 -3 14 -12 5
-8 -8 -18 -7 -40 6 -15 9 -28 21 -29 27 -1 5 -2 19 -3 30 -2 29 -30 30 -46 0
l-13 -25 -12 23 c-6 12 -19 21 -28 21 -9 -1 -16 1 -15 5 2 19 -3 31 -12 26 -6
-4 -8 -9 -6 -13 2 -4 -7 -7 -20 -7 -16 0 -24 6 -24 18 0 10 -4 16 -9 13 -5 -3
-14 1 -21 9 -7 9 -21 13 -31 10 -10 -3 -30 1 -44 11 -20 13 -25 13 -25 3 -1
-9 -4 -8 -11 4 -10 16 -13 17 -27 4 -10 -8 -32 -18 -50 -22 -36 -8 -37 -17 -1
-85 11 -19 19 -40 19 -46 0 -7 7 -15 16 -18 8 -3 12 -10 9 -16 -3 -6 2 -18 11
-28 17 -16 17 -17 -5 -20 -12 -2 -33 4 -46 12 -13 9 -35 16 -49 16 -14 0 -27
4 -31 9 -3 5 -18 12 -34 16 -47 10 -175 91 -240 150 -53 50 -61 62 -72 113
-12 59 -7 180 10 240 l10 32 -56 0 c-31 0 -54 3 -51 6 3 3 29 5 57 6 28 0 49
3 46 8 -7 11 -228 1 -315 -15 -41 -7 -172 -16 -290 -18 -118 -3 -201 -3 -185
0 48 7 52 22 6 21 -23 0 -44 -4 -47 -9 -3 -5 -25 -9 -49 -9 -24 0 -55 -4 -69
-9 -15 -6 -26 -6 -28 -1 -2 6 -66 5 -163 -1 -199 -13 -435 -19 -350 -9 33 4
56 8 50 9 -23 6 -159 -1 -290 -14 -77 -8 -237 -17 -355 -21 -118 -3 -237 -7
-265 -9 -27 -1 -101 -3 -162 -3 l-113 -2 0 -1264 c0 -1196 1 -1265 18 -1269
16 -4 16 -5 0 -6 -21 -1 -24 -27 -5 -34 9 -4 9 -6 0 -6 -10 -1 -13 -93 -13
-401 l0 -400 247 -1 c137 0 345 0 463 1 l215 1 30 -31 c27 -28 34 -30 99 -31
39 0 63 -4 53 -8 -10 -3 -51 -3 -90 1 -104 10 -431 10 -443 -1 -5 -5 -20 -12
-34 -15 l-25 -7 25 16 25 16 -35 -6 c-19 -3 -44 -6 -55 -5 -107 3 -408 -1
-437 -6 l-38 -6 0 -644 c0 -597 1 -643 17 -637 12 5 15 2 11 -9 -4 -9 -2 -20
4 -26 7 -7 3 -12 -11 -17 -21 -6 -21 -9 -21 -396 l0 -389 2930 0 c1612 0 2931
3 2931 8 1 4 2 32 4 62 6 149 17 217 41 267 15 29 23 58 18 65 -4 7 -3 10 1 5
5 -4 17 12 28 35 11 24 29 54 42 68 12 14 27 39 33 55 5 17 14 29 20 28 7 -2
9 4 5 13 -4 10 4 25 21 40 14 14 26 33 26 42 0 34 49 118 94 162 25 24 46 41
46 36 0 -4 7 -1 15 7 26 26 149 59 213 56 32 -1 63 0 68 4 6 3 29 6 51 5 23 0
46 2 51 6 6 3 17 0 25 -8 11 -11 17 -12 26 -3 6 6 11 7 11 1 0 -5 25 -10 56
-10 38 0 58 -4 64 -14 6 -10 10 -11 10 -3 0 8 12 10 38 7 20 -3 51 -6 67 -7
17 -1 36 -9 43 -17 8 -8 11 -9 7 -2 -3 7 0 12 8 12 8 0 18 -7 21 -16 4 -10 16
-14 33 -13 16 2 53 -9 82 -24 30 -15 59 -27 65 -27 5 0 40 -16 77 -35 38 -19
75 -35 84 -35 9 0 18 -6 21 -13 4 -12 30 -26 165 -93 14 -8 41 -15 59 -16 18
-1 35 -8 37 -15 3 -7 10 -13 15 -13 5 0 23 -9 39 -21 16 -11 29 -17 29 -13 0
4 10 -2 23 -13 12 -11 49 -33 81 -48 32 -15 76 -39 97 -55 22 -15 56 -31 76
-35 21 -3 46 -16 55 -28 15 -19 25 -22 95 -20 123 2 197 18 281 61 90 46 161
68 266 82 42 6 100 22 128 35 45 20 70 24 164 26 125 1 166 7 158 21 -3 5 -18
6 -34 3 -30 -7 -45 11 -30 35 5 8 1 26 -10 46 -10 17 -16 35 -12 39 4 4 -2 5
-12 3 -10 -1 -21 3 -23 10 -3 8 7 12 34 12 46 0 83 -29 83 -65 0 -14 4 -25 8
-25 5 0 24 -13 42 -30 18 -16 42 -30 52 -30 31 0 152 -41 172 -59 27 -23 58
-98 51 -121 -9 -29 -62 -63 -91 -57 -13 2 -24 1 -24 -4 0 -4 -10 -9 -21 -11
-12 -2 -27 -11 -33 -20 -27 -44 71 -73 148 -44 81 31 185 17 228 -31 15 -17
51 -94 46 -97 -2 -1 -15 -8 -30 -15 -15 -8 -33 -11 -41 -8 -8 3 -33 -3 -57
-14 -23 -10 -50 -19 -60 -19 -9 0 -25 -9 -35 -20 -17 -19 -18 -22 -2 -55 l17
-35 76 0 c45 0 100 7 131 17 50 16 55 16 88 0 32 -15 94 -17 635 -17 l600 0 0
1623 0 1622 -23 17 -22 17 23 -6 c16 -4 22 -1 22 10 0 9 -10 18 -22 20 l-23 4
23 2 22 1 0 317 c0 283 -2 318 -17 335 -16 18 -16 18 0 12 13 -4 17 -1 17 14
0 20 -42 42 -81 42 -24 0 -25 -17 -1 -23 9 -3 1 -5 -18 -6 -26 0 -31 2 -20 9
8 5 10 10 4 10 -5 0 -14 -4 -20 -9 -14 -14 -84 -25 -84 -13 0 6 6 13 13 15 10
4 10 6 0 6 -8 1 -5 9 7 21 20 20 97 30 86 11 -6 -9 67 -19 96 -13 9 2 15 14
16 31 0 22 -5 30 -22 33 -12 3 -31 1 -42 -3 -30 -12 -222 -11 -229 2 -4 6 -5
12 -3 15 10 10 187 15 225 6 72 -16 71 -20 73 321 l1 297 -53 -21 c-29 -11
-66 -27 -83 -34 -69 -31 -247 -96 -251 -92 -2 2 33 40 78 83 86 82 176 147
228 165 16 6 30 15 30 20 0 5 11 15 25 21 l25 11 0 361 c0 350 -1 362 -20 374
-11 7 -20 19 -20 26 0 8 -6 16 -12 19 -7 2 2 11 20 21 29 15 32 21 32 61 0 33
-4 45 -15 45 -35 0 -46 83 -21 145 8 19 20 35 25 35 8 0 11 335 11 1090 l0
1090 -585 0 c-468 0 -585 -3 -585 -13 0 -7 -9 -19 -20 -27 -11 -8 -20 -19 -20
-25 0 -13 -62 -85 -73 -85 -30 0 55 134 91 143 9 3 -236 5 -545 6 -562 0 -563
0 -563 -20 0 -23 -30 -79 -42 -79 -4 0 -8 -5 -8 -12 0 -6 -11 -26 -25 -43 -13
-18 -29 -54 -36 -80 -9 -37 -18 -50 -43 -62 l-31 -14 35 5 c31 5 33 4 17 -8
-30 -23 -57 -87 -56 -131 1 -22 3 -33 6 -24 3 11 12 15 28 11 14 -2 22 -8 19
-13 -2 -5 7 -11 21 -15 32 -8 32 -18 -1 -33 -37 -17 -109 -77 -130 -109 -10
-15 -21 -51 -25 -81 -5 -34 -16 -62 -30 -77 -27 -29 -21 -38 16 -24 22 9 31 7
46 -6 11 -10 19 -23 19 -29 0 -7 7 -18 15 -25 17 -14 20 0 6 35 -6 14 -2 25
12 38 15 12 16 17 6 17 -8 0 -20 -5 -27 -12 -9 -9 -12 -8 -12 4 0 26 31 31 56
8 18 -18 21 -29 17 -63 -2 -23 -7 -49 -10 -57 -4 -8 -5 -23 -4 -32 1 -10 -1
-18 -6 -18 -4 0 -9 -18 -10 -40 -3 -46 -31 -84 -56 -74 -10 3 -17 11 -18 18
-4 63 -54 190 -71 180 -10 -6 -2 -120 12 -169 4 -16 9 -50 10 -75 1 -25 2 -61
3 -82 3 -47 -11 -38 -19 13 -4 22 -13 47 -21 55 -13 12 -18 11 -43 -8 -15 -13
-26 -26 -24 -30 3 -4 0 -9 -6 -13 -5 -3 -9 -21 -8 -39 1 -18 -2 -38 -5 -43 -9
-14 -82 -9 -177 12 -41 9 -84 17 -94 18 -29 3 -31 -21 -2 -29 15 -3 23 -11 20
-19 -3 -8 -13 -11 -22 -8 -11 4 -8 -2 7 -15 27 -24 49 -30 35 -9 -5 7 0 3 11
-9 11 -12 39 -31 63 -43 23 -12 42 -26 42 -31 0 -5 9 -12 21 -15 11 -4 19 -9
16 -11 -2 -2 -26 4 -53 13 -27 9 -43 18 -35 21 7 2 -18 20 -55 39 -38 20 -71
38 -74 42 -9 10 -50 11 -50 1 0 -6 5 -10 11 -10 20 0 4 -44 -21 -58 -21 -12
-37 -13 -100 -2 -50 9 -69 15 -56 20 13 4 31 36 52 91 28 73 30 84 16 88 -9 2
-33 14 -54 27 -21 13 -44 24 -52 24 -7 0 -19 7 -26 15 -7 8 -30 18 -51 21 -25
4 -36 11 -33 19 7 18 -11 27 -52 27 -33 0 -35 2 -32 32 2 21 -1 30 -10 28 -7
-1 -23 4 -35 13 -13 9 -43 15 -74 15 -49 0 -53 -2 -53 -24 0 -13 -7 -29 -15
-36 -13 -11 -18 -10 -29 6 -8 10 -12 23 -9 30 6 15 -29 28 -38 13 -11 -19 -70
21 -63 43 3 11 -1 20 -10 24 -9 3 -16 12 -16 20 0 9 13 12 50 9 38 -2 50 0 50
11 0 8 10 14 24 14 14 0 27 4 30 9 8 12 76 19 82 9 3 -4 14 -8 24 -8 26 0 35
-19 17 -33 -8 -7 -17 -22 -20 -35 -4 -18 -2 -22 10 -18 8 3 17 6 19 6 2 0 4 9
4 21 0 22 22 49 39 49 6 0 11 6 11 13 1 8 5 7 13 -4 29 -38 85 -50 111 -23 9
8 24 15 33 15 35 0 96 -12 114 -21 24 -14 29 -13 29 6 0 12 8 15 34 13 19 -2
44 4 59 14 29 19 63 22 72 8 3 -5 1 -12 -5 -16 -6 -4 -8 -11 -4 -16 4 -6 11
-6 20 2 8 6 14 8 14 3 0 -20 34 45 125 236 112 239 189 379 280 510 l65 95
-1616 3 c-1475 2 -1617 1 -1632 -14 -14 -15 -17 -15 -27 0 -11 15 -234 16
-2629 16 l-2616 0 0 -1076z m7556 411 c3 -7 15 -11 27 -9 12 2 16 2 10 -2 -8
-3 -11 -15 -7 -30 5 -18 2 -24 -10 -24 -9 0 -21 -11 -25 -24 -12 -29 -29 -36
-96 -36 -35 0 -57 5 -65 15 -7 9 -20 13 -27 11 -12 -5 -65 15 -82 30 -2 2 4
15 13 29 32 49 108 23 77 -26 -9 -16 -8 -19 9 -19 11 0 20 5 20 10 0 6 6 10
13 10 19 0 50 37 42 49 -3 6 -12 11 -20 11 -8 0 -16 4 -19 8 -3 4 27 9 65 9
50 1 72 -2 75 -12z m-3519 -235 c5 0 18 -10 29 -21 22 -26 81 -52 95 -44 5 4
16 -1 25 -10 12 -11 20 -13 29 -5 9 7 16 6 25 -5 10 -12 8 -16 -15 -25 -16 -6
-23 -14 -19 -22 5 -7 2 -9 -7 -6 -8 3 -23 0 -34 -8 -10 -8 -24 -14 -29 -14 -6
0 -4 5 4 10 13 8 12 10 -3 10 -25 0 -77 38 -77 56 0 20 -30 17 -30 -3 -1 -10
-7 -3 -15 15 -18 41 -17 111 1 87 6 -8 16 -15 21 -15z m4929 -99 c-3 -5 0 -11
8 -14 7 -3 16 -21 20 -41 4 -20 17 -46 29 -59 12 -13 16 -16 10 -7 -13 17 -18
49 -6 37 3 -4 12 -2 19 4 10 8 26 3 64 -18 52 -29 59 -46 22 -51 -24 -4 -28
-12 -11 -29 8 -8 0 -32 -30 -90 -47 -92 -64 -133 -52 -133 10 0 58 60 100 128
18 28 38 52 44 52 7 0 7 -4 -1 -12 -15 -15 -16 -32 -2 -23 28 18 65 -80 41
-108 -5 -7 -8 -22 -5 -34 3 -11 1 -24 -5 -27 -7 -5 -7 -13 2 -27 10 -16 9 -21
-3 -29 -8 -5 -11 -10 -7 -10 4 0 3 -9 -3 -20 -8 -15 -8 -20 2 -21 7 0 2 -5
-12 -10 -18 -8 -21 -12 -11 -18 11 -7 10 -13 -4 -34 -21 -33 -27 -35 -112 -33
-49 1 -77 6 -90 17 -22 20 -214 95 -267 105 l-38 7 6 43 c8 63 87 211 106 199
4 -3 11 1 13 7 3 7 6 2 7 -12 1 -23 2 -23 10 -5 5 11 9 32 9 47 1 15 18 55 40
88 l38 61 12 -45 c17 -67 14 -82 -21 -123 -33 -37 -22 -37 20 1 22 20 23 25
17 102 -6 65 -4 87 9 112 9 18 21 32 27 32 6 0 8 -4 5 -9z m-8333 -258 c-22
-8 -14 -26 8 -20 15 4 19 2 15 -9 -3 -8 -1 -14 4 -14 14 0 13 -27 -1 -36 -6
-3 -16 -1 -22 5 -17 17 -34 13 -40 -9 -4 -17 -12 -19 -58 -16 -41 3 -56 0 -65
-12 -12 -16 -14 -15 -27 3 -11 14 -12 23 -4 36 17 28 60 48 90 42 21 -4 34 0
48 16 11 11 30 21 42 20 12 0 16 -3 10 -6z m85 -188 c-3 -12 1 -27 9 -33 16
-16 17 -34 1 -30 -17 3 -58 -20 -58 -33 0 -5 17 -9 38 -7 27 2 37 -1 37 -12 0
-10 -12 -16 -33 -18 -28 -3 -33 -7 -29 -23 6 -21 3 -22 -30 -13 -13 4 -20 11
-16 18 3 6 -2 3 -13 -6 -14 -12 -34 -16 -71 -14 -60 3 -78 12 -39 21 14 3 37
7 51 10 29 6 34 33 8 41 -10 3 -26 10 -35 15 -18 9 -34 -4 -23 -21 3 -5 -5
-16 -19 -25 -14 -9 -22 -23 -20 -30 7 -16 -53 -30 -85 -20 -30 9 -48 45 -28
56 9 5 13 18 9 34 -5 30 -9 31 -35 8 -11 -11 -37 -18 -61 -19 -41 -1 -42 -1
-38 30 4 30 5 31 60 34 31 2 62 8 68 13 18 15 166 38 189 29 46 -17 96 -21 94
-8 -3 21 12 51 35 70 20 16 21 16 29 -14 5 -18 7 -41 5 -53z m6853 27 c32 -16
54 -32 52 -39 -3 -7 0 -13 6 -13 6 0 11 6 11 13 0 7 5 5 11 -5 5 -9 15 -15 22
-13 15 6 44 -12 35 -21 -11 -11 -86 -8 -101 4 -8 7 -18 7 -27 2 -21 -14 -30
-12 -30 5 0 8 -7 15 -15 15 -14 0 -13 -3 1 -25 9 -14 22 -25 29 -25 7 0 35
-15 61 -33 27 -18 58 -31 68 -29 15 3 16 6 5 13 -11 7 -10 11 6 23 27 20 35
20 35 -3 0 -10 7 -21 15 -25 8 -3 15 -17 15 -31 0 -14 10 -54 21 -88 12 -34
24 -78 26 -97 2 -19 15 -66 29 -104 l25 -69 -27 -41 c-15 -23 -48 -67 -73 -98
-25 -31 -67 -87 -93 -125 -26 -37 -64 -90 -84 -118 l-36 -50 7 35 c4 19 9 52
10 72 4 54 74 296 110 381 6 15 1 17 -34 17 -40 0 -46 -6 -42 -37 3 -19 -13
-15 -26 6 -10 16 -21 19 -50 15 -32 -3 -40 -1 -48 18 -9 20 -16 22 -59 19 -37
-2 -47 1 -44 11 3 7 19 14 37 16 32 3 32 4 15 23 -9 10 -29 19 -44 19 -14 0
-31 5 -38 12 -8 8 -15 8 -25 -1 -10 -7 -23 -8 -38 -3 -13 5 -30 7 -36 5 -19
-7 -16 8 5 23 18 14 20 14 -38 18 -9 1 -15 11 -14 26 1 13 -8 32 -20 42 l-21
17 23 1 c32 0 23 24 -11 28 -28 3 -33 12 -17 28 11 11 3 25 -25 40 -11 6 -22
20 -23 30 -2 10 -12 28 -22 39 -10 11 -21 35 -25 53 -7 32 -6 32 20 20 14 -6
24 -17 21 -24 -3 -9 7 -15 32 -19 20 -3 45 -8 56 -10 17 -3 17 -2 -3 19 -22
23 -28 46 -12 46 6 0 13 -4 16 -10 9 -15 222 -4 270 14 50 19 41 20 106 -12z
m-1193 -334 c10 -10 17 -10 32 0 15 9 19 9 18 1 -2 -7 13 -16 32 -21 19 -6 40
-14 47 -19 7 -7 14 -6 18 1 3 5 11 10 17 10 6 0 9 -2 6 -5 -3 -3 12 -23 34
-45 21 -23 38 -45 38 -50 0 -5 -19 -15 -42 -21 -24 -7 -52 -21 -64 -31 -24
-21 -57 -14 -52 11 2 9 16 22 31 29 26 13 26 14 10 38 -11 18 -19 22 -26 15
-6 -6 -21 -11 -34 -11 -30 0 -46 -39 -41 -97 3 -39 0 -44 -27 -57 l-30 -15 25
-10 c25 -10 23 -11 -28 -16 -27 -3 -40 13 -18 21 20 8 21 33 1 40 -25 10 -17
34 10 34 15 0 25 6 25 15 0 8 -6 12 -12 10 -18 -7 -42 11 -34 24 4 6 21 11 37
11 24 0 30 4 27 18 -2 10 -12 17 -26 16 -12 0 -22 3 -22 8 0 4 6 8 13 8 10 0
13 14 12 50 -2 52 2 59 23 38z m2702 -509 c27 -51 51 -54 110 -14 69 47 179
87 357 131 l153 38 177 -28 c98 -15 186 -32 197 -38 20 -10 42 -13 222 -23 60
-3 119 -8 130 -10 10 -2 24 -4 30 -4 7 -1 31 -20 55 -43 24 -24 34 -32 24 -18
-17 21 -15 21 13 -4 17 -17 32 -35 32 -42 0 -7 39 -56 88 -111 127 -143 152
-173 152 -182 0 -4 -15 -28 -33 -52 -18 -24 -32 -51 -32 -59 1 -8 -5 -23 -13
-32 -8 -10 -11 -18 -6 -18 5 0 9 -21 9 -47 0 -27 4 -51 10 -55 15 -11 -131
-147 -265 -245 -109 -80 -167 -134 -143 -133 16 1 52 25 50 34 -1 5 8 11 21
12 17 3 22 -1 22 -17 0 -15 -4 -19 -16 -15 -14 5 -15 0 -12 -34 3 -32 1 -39
-11 -35 -8 3 -18 0 -23 -7 -6 -10 -11 -9 -18 4 -6 9 -17 15 -24 12 -9 -3 -13
1 -13 13 3 28 -49 19 -99 -17 -23 -16 -51 -30 -61 -31 -10 0 -27 -4 -38 -8
-17 -7 -13 -12 31 -34 28 -14 54 -24 57 -20 12 11 18 -46 8 -65 -16 -29 -14
-35 9 -29 11 3 23 1 26 -4 9 -15 44 -10 51 7 4 12 8 13 14 3 6 -11 14 -10 41
2 30 14 36 14 69 0 20 -9 43 -22 52 -29 8 -7 23 -9 33 -6 11 4 16 4 12 -1 -9
-10 16 -35 36 -35 28 0 18 -52 -19 -108 -20 -28 -39 -52 -44 -52 -10 0 -38 73
-43 110 -3 21 -9 13 -37 -45 -40 -83 -58 -106 -77 -98 -8 3 -18 -5 -25 -20
-10 -21 -9 -29 6 -43 14 -15 18 -15 26 -3 5 8 9 24 9 35 0 23 26 51 37 40 4
-3 -1 -22 -10 -41 -22 -45 -22 -69 -2 -61 9 3 18 -1 22 -10 5 -13 7 -13 14 -2
8 13 14 -13 11 -52 0 -8 5 -37 12 -65 16 -60 19 -102 7 -109 -5 -3 -20 4 -35
15 -21 17 -26 29 -26 68 0 26 5 52 12 59 9 9 9 15 0 24 -21 21 -27 -2 -30
-110 -3 -119 -14 -142 -65 -142 -36 0 -67 25 -68 54 0 15 -6 9 -18 -19 -29
-64 -36 -67 -157 -62 -119 6 -156 22 -162 70 -2 15 -7 27 -12 27 -5 0 -16 3
-26 7 -11 4 -15 3 -11 -4 5 -7 -6 -11 -27 -11 -19 0 -39 -3 -45 -7 -6 -3 -11
-2 -11 3 0 13 85 36 110 29 11 -3 20 -1 20 4 0 5 -7 9 -15 9 -25 0 -105 80
-105 105 0 12 12 35 28 50 15 16 20 26 12 23 -141 -53 -318 -133 -308 -140 9
-5 7 -8 -7 -6 -36 2 -56 -2 -50 -11 3 -5 0 -13 -6 -17 -8 -4 -9 -3 -5 4 4 7 5
12 2 12 -3 0 -97 -38 -208 -84 -112 -46 -238 -94 -280 -107 -42 -13 -74 -27
-72 -31 14 -22 -61 3 -78 27 -4 5 -12 -4 -18 -20 -30 -79 -58 -121 -110 -162
-61 -48 -140 -82 -213 -90 -26 -3 -50 -10 -53 -14 -8 -14 -93 -10 -153 5 -59
16 -83 31 -36 22 54 -9 110 -16 100 -12 -5 2 -37 12 -70 22 -65 18 -102 41
-50 30 l30 -6 -25 14 c-14 9 -32 13 -40 11 -8 -3 -22 0 -30 6 -11 8 -9 9 10 3
20 -5 17 0 -15 23 -22 16 -47 32 -55 37 -8 4 -5 -1 8 -10 12 -9 22 -21 22 -28
0 -6 -32 22 -71 62 -99 102 -132 175 -132 297 -1 71 4 101 21 143 12 29 18 51
12 47 -20 -12 -9 12 16 36 l26 24 -54 6 -53 6 62 1 c34 1 65 7 68 12 6 10 -27
15 -79 11 -18 -2 -26 1 -21 8 3 6 21 12 38 12 24 1 19 4 -18 9 -27 4 -70 6
-95 4 -41 -3 -43 -2 -26 11 13 10 43 15 88 15 37 0 68 4 68 9 0 5 -18 8 -40 6
-22 -2 -42 1 -45 6 -4 5 9 9 29 9 19 0 37 6 40 13 5 10 7 10 12 0 3 -7 10 -13
15 -13 6 0 8 4 4 9 -3 5 5 12 17 14 13 2 4 5 -19 6 -24 0 -43 -3 -43 -9 0 -5
-11 -10 -25 -10 -14 0 -25 5 -25 11 0 6 7 9 15 5 8 -3 15 -1 15 4 0 6 -34 10
-77 10 -43 0 -72 -4 -66 -8 8 -5 -3 -8 -25 -8 -20 0 -43 6 -50 12 -10 10 -2
14 40 17 l53 3 -59 2 c-96 3 -56 14 66 19 62 2 114 6 116 8 3 2 -49 4 -113 4
-65 0 -120 3 -124 7 -9 8 -4 96 6 103 11 8 14 33 16 128 1 45 5 85 10 89 4 4
7 20 7 36 0 27 2 28 48 28 30 0 42 3 33 9 -7 5 -22 6 -32 4 -10 -3 -19 0 -19
6 0 6 11 11 24 11 13 0 26 7 29 14 4 11 16 13 43 9 25 -4 35 -3 31 5 -5 6 0 8
13 5 11 -3 20 -10 20 -15 0 -6 7 -8 15 -4 8 3 15 0 15 -7 0 -7 -14 -14 -32
-15 -55 -4 -44 -12 18 -12 67 0 99 -13 74 -30 -22 -14 -6 -12 23 3 20 11 23
17 15 25 -9 9 -8 12 3 12 8 0 20 -5 26 -11 6 -6 16 -9 21 -5 6 3 -2 29 -20 61
-16 30 -28 61 -25 68 2 6 12 -3 21 -21 10 -19 20 -31 23 -28 6 6 -37 75 -47
74 -20 -2 -30 4 -30 18 0 9 5 12 11 8 7 -4 10 -1 7 7 -3 8 -9 13 -14 13 -5 -1
-18 7 -29 19 -16 16 -17 19 -3 14 14 -5 14 -1 -4 29 -11 20 -28 34 -39 34 -10
0 -19 4 -19 10 0 5 7 7 15 4 11 -5 13 -2 9 10 -4 11 -13 15 -25 11 -11 -4 -19
-2 -19 4 0 6 4 11 9 11 5 0 7 8 4 19 -3 10 3 25 12 32 9 8 24 21 34 29 24 23
97 52 256 103 218 70 188 75 280 -48 44 -58 84 -105 89 -105 4 0 -7 19 -26 43
-19 23 -41 53 -48 67 -12 24 -12 24 6 9 10 -9 30 -20 44 -24 14 -4 37 -16 52
-26 14 -11 31 -19 37 -19 6 0 11 -6 11 -12 1 -8 6 -6 14 5 12 16 15 16 23 3 4
-8 27 -17 51 -20 23 -3 41 -2 38 2 -2 4 7 12 20 19 23 11 35 1 14 -12 -8 -5
-8 -11 0 -20 6 -7 7 -20 4 -30 -6 -15 -4 -16 15 -5 16 8 26 8 35 0 17 -13 30
13 21 41 -4 13 -1 19 9 19 9 0 16 5 16 12 0 7 5 6 13 -4 6 -8 21 -18 32 -22
16 -6 18 -5 8 5 -17 17 -16 29 1 29 7 0 21 -12 31 -26 12 -19 23 -25 41 -21
13 2 24 1 24 -2 0 -4 12 -14 28 -23 23 -15 24 -18 7 -18 l-20 -1 20 -9 c30
-13 35 -12 28 7 -5 12 -3 14 7 8 10 -6 11 0 6 30 -5 25 -4 35 3 30 6 -3 11
-18 11 -33 0 -15 4 -42 9 -60 8 -25 7 -32 -5 -32 -16 0 -15 -18 4 -38 10 -11
10 -17 0 -29 -6 -8 -13 -24 -15 -35 -2 -12 -13 -30 -25 -40 -29 -25 -17 -45
39 -67 22 -9 64 -36 93 -61 108 -93 172 -114 178 -59 3 28 -1 34 -68 89 -24
19 -63 54 -87 76 -43 40 -43 41 -16 37 15 -3 33 -10 38 -17 6 -6 29 -23 52
-39 24 -15 60 -49 80 -77 38 -49 63 -63 63 -35 0 9 7 29 15 45 9 17 11 30 5
30 -5 0 -10 5 -10 11 0 14 -69 77 -97 89 -13 5 -23 15 -23 22 0 13 -71 86 -99
103 -11 6 -12 -1 -7 -36 4 -30 -1 -20 -14 28 -10 39 -26 85 -34 102 -19 35
-21 61 -5 61 14 0 6 74 -16 146 -15 50 -53 84 -95 84 -38 0 -41 -22 -16 -121
13 -52 23 -95 22 -96 -2 -2 -34 20 -73 47 -73 52 -152 131 -202 204 l-29 42
124 62 c87 43 123 66 118 75 -53 87 -86 131 -134 177 -31 30 -45 45 -30 33 39
-34 48 -28 15 10 -16 17 12 -8 63 -58 52 -49 102 -106 112 -126z m-5347 135
c42 -4 77 -11 77 -16 0 -6 8 -7 18 -3 9 5 36 9 59 10 l42 1 0 -57 c-1 -56 37
-204 67 -260 13 -26 13 -27 -25 -33 -21 -3 -185 -6 -365 -6 l-326 0 26 53 c55
112 80 155 138 240 l61 88 75 -5 c41 -3 110 -9 153 -12z m5057 -2985 c80 -6
172 -12 206 -13 46 -1 68 -7 89 -24 15 -12 32 -22 36 -22 5 0 9 -6 9 -12 0
-10 128 -13 607 -13 l608 0 51 -210 c28 -115 72 -298 98 -405 173 -715 236
-969 307 -1231 43 -163 79 -299 79 -303 0 -3 -129 -6 -287 -6 -157 0 -283 -3
-280 -7 4 -4 -5 -12 -21 -18 -15 -7 -28 -21 -30 -31 -4 -39 -8 -54 -19 -65 -7
-7 -11 -4 -11 13 0 21 -11 49 -84 205 -25 53 -202 231 -206 208 -7 -35 10 -84
43 -126 41 -52 42 -57 13 -69 -13 -5 -18 -9 -11 -9 7 -1 10 -8 7 -16 -4 -10 0
-15 12 -16 18 -1 18 -2 1 -6 -11 -3 -16 -11 -13 -19 10 -25 -32 -15 -51 12
-22 33 -95 105 -101 100 -2 -3 1 -13 7 -25 6 -11 7 -22 2 -25 -9 -6 -26 22
-23 37 3 10 -30 8 -48 -3 -12 -8 -10 -10 10 -10 22 -1 23 -2 9 -13 -9 -7 -14
-18 -11 -26 2 -8 0 -11 -5 -8 -5 3 -15 2 -23 -4 -11 -6 0 -9 32 -9 40 0 46 -3
41 -16 -4 -12 -2 -15 8 -12 8 3 14 12 14 21 0 8 4 19 9 24 5 4 6 3 2 -4 -4 -7
-2 -13 4 -13 7 0 9 -7 6 -16 -3 -8 -2 -12 4 -9 9 6 40 -55 40 -79 0 -7 -9 -12
-20 -13 -11 -1 -18 2 -15 8 4 5 1 9 -4 9 -6 0 -11 8 -11 18 -1 14 -4 13 -21
-7 -15 -19 -17 -26 -7 -32 14 -9 14 -8 -22 -32 -35 -24 -5 -22 67 3 32 11 61
16 66 11 9 -9 -11 -61 -24 -61 -4 0 -15 -3 -25 -7 -10 -4 -15 -2 -11 3 7 12
-54 11 -73 -1 -11 -7 -10 -10 6 -16 17 -7 17 -8 1 -8 -20 -1 -67 27 -67 39 0
5 8 11 18 13 14 4 14 5 -3 6 -11 1 -27 7 -35 14 -16 13 -96 130 -92 135 5 5
-28 58 -56 90 -16 18 -39 35 -51 37 -32 6 -51 24 -51 47 0 25 -36 96 -65 128
-12 14 -35 43 -50 65 -15 22 -25 33 -22 24 12 -35 56 -228 67 -289 7 -40 20
-74 33 -87 20 -23 38 -30 36 -15 -1 4 -1 14 0 22 1 13 3 13 10 1 5 -8 7 -20 4
-28 -3 -8 4 -24 15 -36 21 -22 21 -23 2 -34 -14 -10 -20 -10 -23 0 -3 8 -17 0
-38 -20 -19 -18 -29 -33 -23 -33 7 0 17 7 24 15 14 17 35 21 25 5 -3 -6 4 -10
16 -10 19 0 20 -13 1 -16 -4 0 -23 -8 -42 -16 -25 -12 -40 -13 -53 -6 -10 5
-31 12 -45 14 -15 3 -34 13 -42 23 -8 10 -25 24 -37 30 -13 7 -23 18 -23 25 0
20 -18 23 -85 16 -33 -4 -54 -8 -47 -9 6 0 12 -5 12 -9 0 -5 -6 -10 -12 -11
-7 -2 -285 -5 -618 -8 l-606 -4 -17 218 c-9 120 -26 328 -37 463 -11 135 -31
389 -45 565 -14 176 -30 361 -35 410 -6 50 -15 173 -20 275 -6 102 -13 200
-16 218 l-6 32 96 0 96 0 0 55 0 55 363 0 c199 0 427 -5 507 -11z m-3343 -288
c6 -10 28 -21 47 -25 43 -8 57 -24 15 -18 -17 3 -29 0 -29 -7 0 -6 3 -11 8
-11 4 0 63 -7 132 -15 69 -8 154 -13 190 -10 57 4 60 3 25 -5 -61 -15 -345
-21 -369 -8 -21 10 -21 10 0 -10 18 -17 28 -19 59 -12 21 5 47 5 59 0 12 -4
81 -6 154 -5 87 2 130 0 126 -7 -4 -7 2 -7 17 -2 13 4 40 8 60 9 20 2 41 5 47
8 5 4 25 6 43 5 19 0 45 2 58 7 18 5 22 4 16 -5 -6 -9 -4 -11 6 -4 21 13 42
14 56 2 10 -8 13 -7 13 3 0 11 2 11 10 -1 6 -10 10 -11 10 -2 0 8 16 12 48 12
47 -1 47 -1 25 -19 -12 -10 -19 -21 -16 -25 4 -3 -3 -6 -15 -6 -12 0 -22 5
-22 10 0 6 -12 10 -27 10 -22 0 -25 -2 -13 -10 13 -9 13 -10 -1 -10 -8 0 -20
5 -27 12 -9 9 -15 8 -25 -7 -8 -10 -18 -16 -23 -13 -5 3 -43 0 -84 -7 -41 -7
-67 -13 -57 -14 9 -1 17 -5 17 -11 0 -5 10 -10 23 -9 21 0 21 1 2 9 -15 6 -16
9 -4 9 9 1 19 -2 23 -6 4 -4 46 -7 94 -6 l87 1 -75 -8 c-41 -4 -106 -8 -143
-9 -43 -1 -66 -5 -62 -11 3 -5 1 -10 -4 -10 -6 0 -11 -4 -11 -9 0 -5 25 -8 56
-6 75 6 61 -6 -18 -15 -35 -4 54 -6 197 -4 148 2 245 -1 225 -5 -30 -7 -32 -9
-10 -11 21 -2 19 -4 -10 -9 -24 -4 -36 -2 -38 7 -2 6 -10 12 -17 12 -18 0 -47
-29 -40 -41 4 -5 51 -9 106 -9 77 0 99 3 93 13 -4 6 1 5 12 -4 12 -11 33 -16
59 -14 22 2 32 1 22 -2 -9 -2 -15 -9 -11 -14 3 -5 -29 -8 -78 -7 -46 1 -116
-2 -157 -6 -53 -6 -72 -5 -67 3 4 6 2 11 -3 11 -6 0 -11 -4 -11 -9 0 -4 -48
-9 -107 -10 -161 -1 -264 -11 -256 -25 5 -8 3 -8 -8 0 -20 16 -133 11 -155 -6
-10 -8 -15 -10 -11 -3 10 16 -14 22 -37 11 -12 -7 -16 -7 -12 0 3 6 -1 9 -10
8 -8 -1 -19 -7 -22 -13 -5 -7 -78 -13 -205 -16 -170 -4 -195 -2 -185 10 10 12
4 14 -38 11 -33 -2 -48 -7 -46 -15 2 -15 -54 -18 -60 -4 -2 6 -21 6 -46 1 -24
-4 -59 -4 -78 0 -19 5 -34 4 -34 -1 0 -5 -5 -9 -11 -9 -5 0 -7 5 -4 10 3 6 1
10 -4 10 -6 0 -11 -6 -11 -12 0 -10 -2 -10 -8 0 -7 10 -15 10 -37 2 -16 -6
-32 -7 -39 -1 -6 4 -20 7 -31 4 -11 -2 -51 -6 -90 -9 -116 -7 -129 -9 -142
-17 -7 -5 -13 -4 -13 2 0 14 -68 25 -83 13 -6 -5 -34 -9 -60 -8 -27 1 -51 -2
-54 -6 -2 -5 -11 -4 -19 3 -10 8 -14 8 -14 0 0 -6 -10 -11 -22 -10 -22 0 -22
1 -3 9 15 7 9 8 -22 6 -28 -3 -46 1 -54 10 -6 8 -23 14 -38 13 l-26 -1 25 -8
c24 -8 23 -8 -8 -9 -20 -1 -31 3 -27 9 11 18 -14 11 -25 -7 -10 -15 -11 -16
-6 -1 4 14 -5 17 -54 20 -32 1 -56 0 -53 -4 2 -5 14 -9 26 -9 13 -1 8 -4 -13
-8 -20 -4 -38 -2 -42 4 -9 13 -39 13 -56 1 -9 -7 -12 -5 -10 5 2 8 -3 13 -12
11 -8 -2 -87 -6 -174 -8 l-159 -4 32 24 c23 17 28 25 17 29 -8 3 -25 -3 -38
-15 -17 -14 -24 -16 -26 -6 -3 16 -51 40 -65 31 -6 -3 -7 -1 -3 5 4 7 3 12 -3
12 -5 0 -12 -6 -15 -12 -4 -9 -8 -10 -11 -2 -3 6 -20 10 -37 8 -17 -2 -28 -1
-25 3 10 10 157 12 163 2 3 -5 11 -9 17 -9 9 0 9 2 -1 8 -15 10 87 55 114 50
9 -2 19 2 21 9 3 7 -10 13 -34 16 -21 2 -6 4 32 4 52 1 62 -1 40 -7 -19 -5 18
-8 98 -8 71 0 126 2 123 5 -3 3 -43 6 -91 6 -106 0 -113 13 -8 15 42 1 79 4
82 7 3 4 -56 5 -132 4 -76 -1 -140 0 -143 3 -4 5 290 19 494 23 109 2 137 14
33 14 -45 0 -78 5 -89 13 -9 7 -13 8 -9 2 8 -13 -24 -24 -63 -23 -17 1 -19 3
-7 6 20 5 22 14 5 31 -9 9 -8 12 7 13 11 1 23 1 28 0 4 0 7 4 7 10 0 6 -8 8
-18 5 -12 -4 -19 -1 -19 8 0 8 6 12 15 8 10 -3 13 -1 8 6 -4 7 1 9 15 7 13 -3
26 -9 29 -15 5 -7 11 -6 19 4 10 11 18 13 31 6 13 -7 20 -6 22 2 3 8 12 9 34
1 19 -7 38 -7 54 -1 21 8 66 14 135 18 6 1 66 0 134 -1 84 -1 126 2 131 10 5
9 10 8 18 -2 12 -14 80 -16 101 -3 6 4 15 5 20 2 5 -4 20 -2 33 3 17 7 0 10
-65 10 -49 1 -86 5 -83 10 3 5 -3 11 -14 14 -11 3 -20 10 -20 16 0 7 9 5 25
-5 27 -17 47 -12 38 11 -3 10 1 15 13 15 13 0 15 -3 7 -8 -17 -11 -1 -31 22
-30 11 0 39 -2 63 -6 28 -4 42 -2 42 5 0 8 15 10 43 7 23 -3 53 -2 67 2 19 6
13 8 -30 10 -30 1 -70 1 -87 0 -18 -1 -33 3 -33 9 0 6 28 10 68 10 37 0 102 1
145 3 42 2 77 0 77 -4 0 -11 -46 -21 -67 -14 -10 3 -25 1 -33 -4 -11 -7 -11
-10 -2 -10 7 0 10 -5 6 -11 -4 -7 1 -7 16 1 13 7 45 12 72 12 42 0 47 2 36 16
-11 13 -4 14 64 10 49 -3 81 -1 89 6 9 8 10 8 5 -1 -4 -8 9 -11 48 -10 57 1
99 -18 74 -34 -8 -6 -2 -8 17 -8 17 0 24 3 17 6 -10 4 -9 8 5 19 10 7 13 14 7
14 -7 0 -14 7 -18 15 -8 21 7 19 21 -4z m-2504 -571 c-13 -5 -33 -11 -45 -12
-13 -2 -27 -6 -33 -10 -5 -3 -29 -4 -52 -3 -24 2 -43 -1 -43 -6 0 -5 -4 -9
-10 -9 -5 0 -10 7 -10 15 0 8 -6 15 -14 15 -8 0 -16 -7 -20 -15 -4 -12 -24
-15 -92 -15 -79 0 -86 2 -91 21 -3 11 -9 16 -12 11 -4 -7 -13 -5 -25 4 -17 12
12 14 225 13 155 0 236 -4 222 -9z m2466 -36 c-13 -7 -18 -13 -11 -14 6 0 12
-5 12 -11 0 -6 -9 -9 -20 -6 -11 3 -20 1 -20 -4 0 -5 19 -9 43 -9 31 0 38 3
27 10 -13 8 -12 10 3 10 9 0 17 -4 17 -9 0 -10 101 -8 117 2 7 4 14 3 17 -2 4
-5 -2 -12 -11 -14 -14 -4 -13 -5 5 -6 12 0 22 5 23 12 0 10 2 10 6 0 2 -7 14
-13 25 -13 12 0 18 -3 15 -7 -4 -3 -50 -5 -102 -5 -52 1 -95 -2 -95 -6 0 -5 6
-16 13 -27 13 -17 15 -17 30 6 10 13 17 18 17 11 0 -13 21 -12 31 2 4 5 12 -2
19 -15 9 -18 9 -21 1 -13 -9 8 -23 8 -53 -3 -23 -8 -53 -11 -69 -8 -17 4 -30
1 -35 -7 -4 -7 -4 -10 1 -6 4 4 14 3 22 -4 7 -6 16 -8 20 -5 3 3 17 0 32 -7
14 -7 31 -11 37 -9 6 2 11 -3 11 -12 0 -11 -13 -15 -56 -16 -48 -1 -51 -3 -21
-8 23 -4 31 -9 22 -14 -7 -5 -10 -13 -7 -18 4 -5 -1 -9 -9 -9 -8 0 -18 5 -21
10 -3 6 -12 10 -18 10 -7 0 -6 -4 3 -10 16 -11 16 -11 -68 -15 -27 -1 -48 -9
-60 -21 -11 -13 -30 -20 -55 -19 -22 0 -41 -3 -43 -6 -2 -4 -16 -5 -31 -3 -86
9 -103 8 -103 -11 0 -11 11 -15 37 -15 43 0 36 -12 -10 -18 -100 -11 -160 -13
-175 -6 -20 8 39 22 101 23 27 1 37 5 37 17 0 14 -12 15 -97 10 -104 -7 -255
-8 -261 -1 -2 2 6 9 18 15 15 8 20 8 16 1 -5 -7 4 -11 26 -10 34 1 97 15 88
19 -19 9 -435 14 -449 6 -6 -4 -11 -4 -11 1 0 8 -109 12 -349 13 -68 0 -122 2
-119 5 3 3 64 6 137 7 90 0 131 4 131 12 0 7 3 7 8 1 8 -12 28 -12 60 -1 13 4
28 3 35 -2 25 -21 457 -20 630 2 20 2 37 0 37 -5 0 -5 4 -9 9 -9 5 0 7 9 4 21
-5 19 -11 20 -97 16 -50 -2 -101 0 -113 4 -13 5 -23 5 -23 1 0 -4 -57 -9 -127
-10 -78 -1 -129 -5 -131 -12 -2 -5 -8 -10 -13 -10 -6 0 -7 5 -3 12 5 8 -2 9
-24 5 -19 -4 -32 -2 -32 4 0 6 -6 6 -19 -1 -25 -13 -54 -13 -46 0 3 6 -1 10
-9 10 -9 0 -16 -4 -16 -8 0 -5 -25 -4 -55 1 -30 6 -52 14 -49 19 3 4 0 8 -5 8
-6 0 -11 -4 -11 -8 0 -12 -215 -6 -260 6 l-35 10 40 2 c22 2 87 2 143 1 76 -2
102 1 97 9 -4 7 -17 9 -28 6 -14 -3 -30 2 -44 16 -15 14 -23 17 -23 9 0 -10
-3 -11 -14 -2 -8 7 -16 8 -18 2 -3 -10 -21 -14 -51 -12 -32 2 7 31 42 31 33 0
39 8 19 28 -9 9 -1 12 37 14 28 0 64 2 80 3 17 1 67 -1 113 -4 46 -4 86 -3 88
1 3 5 11 5 17 1 18 -11 47 -9 87 3 47 16 50 33 4 29 -24 -3 -42 2 -53 12 -14
15 -13 16 14 9 17 -4 57 -7 90 -7 39 1 55 -2 46 -8 -8 -5 -20 -7 -28 -4 -7 3
-13 1 -13 -5 0 -5 10 -13 23 -17 35 -11 367 -12 367 0 0 6 -59 10 -156 11
-101 1 -159 5 -167 13 -12 12 -17 12 83 15 36 2 71 -2 79 -8 11 -8 13 -8 7 2
-5 8 -1 12 13 12 10 0 21 -6 24 -12 4 -10 7 -10 18 0 7 6 20 12 28 11 11 0 10
-3 -4 -9 -16 -7 -13 -9 18 -9 20 -1 37 4 37 9 0 6 5 10 11 10 5 0 8 -3 6 -7
-4 -7 234 -10 258 -4 6 2 24 2 40 1 17 0 43 5 59 14 16 8 53 14 84 14 51 -1
53 -2 31 -14z m-999 -13 c0 -15 -41 -19 -203 -20 -122 0 -156 2 -151 12 6 8 3
8 -8 -1 -23 -18 -235 -14 -242 5 -4 11 51 13 299 13 172 0 305 -4 305 -9z
m1330 -83 c0 -10 3 -9 9 1 5 8 11 9 15 3 3 -6 -3 -13 -14 -17 -11 -3 -20 -12
-20 -20 0 -7 -6 -16 -12 -18 -7 -3 -4 -6 6 -6 20 -1 20 -1 0 -16 -17 -13 -18
-14 -1 -15 10 0 20 6 23 13 3 8 23 14 52 14 104 2 113 3 106 15 -5 7 -3 8 6 3
7 -4 68 -9 136 -9 67 -1 126 -4 130 -8 4 -5 -15 -9 -42 -10 -27 0 -53 -2 -59
-3 -5 -2 -27 -3 -48 -4 -28 -1 -36 -4 -31 -13 6 -10 5 -10 -7 -2 -10 8 -30 9
-66 4 -29 -5 -93 -8 -143 -6 -50 1 -95 -1 -102 -5 -6 -4 -17 -5 -25 -2 -15 6
-18 43 -3 43 6 0 10 -7 10 -15 0 -8 4 -15 9 -15 12 0 9 33 -4 42 -6 5 -3 8 6
8 9 0 22 11 29 25 14 26 40 34 40 13z m1030 -631 c36 1 94 3 130 5 36 1 110
-2 165 -7 91 -8 96 -9 54 -16 -39 -6 -255 -14 -651 -23 -60 -1 -108 1 -108 5
0 8 99 18 214 21 54 2 81 7 84 16 2 8 11 10 25 5 12 -4 51 -7 87 -6z m2841
-714 c149 -156 183 -180 177 -123 -3 34 12 49 52 50 14 0 49 9 78 19 51 18 53
18 66 0 7 -10 33 -41 59 -69 47 -51 64 -87 53 -115 -4 -12 -11 -11 -39 8 -19
12 -32 26 -30 30 3 5 -5 19 -18 33 -12 13 -19 24 -15 24 4 0 1 7 -8 15 -21 21
-35 19 -33 -5 1 -11 7 -18 13 -16 8 3 11 -5 9 -22 -2 -15 2 -30 9 -34 7 -5 6
-8 -4 -8 -36 -1 -41 -14 -24 -61 12 -34 13 -50 5 -71 -10 -26 -13 -27 -58 -23
-26 3 -49 10 -51 15 -2 6 -12 10 -23 10 -10 0 -19 7 -19 15 0 8 -6 15 -14 15
-8 0 -16 7 -20 15 -8 22 -25 18 -31 -8 -4 -12 -14 -23 -23 -23 -9 -1 -24 -4
-32 -8 -10 -4 -32 10 -62 39 -50 47 -59 61 -33 51 8 -3 15 -1 15 4 0 6 5 10
11 10 5 0 8 -4 4 -9 -8 -15 15 -25 28 -12 8 8 8 11 -1 11 -6 0 -9 7 -5 16 5
14 1 16 -20 12 -17 -3 -35 2 -54 18 -15 13 -33 23 -39 24 -7 0 -18 10 -27 23
-8 12 -27 34 -42 49 -15 15 -24 32 -20 38 3 5 1 10 -4 10 -29 0 -5 19 45 36
30 10 61 25 67 34 11 13 10 13 -5 1 -16 -12 -18 -11 -18 18 0 17 4 31 9 31 5
0 37 -30 72 -67z"/>
<path d="M7230 6711 c0 -6 6 -11 14 -11 23 0 30 -20 13 -37 -11 -12 -19 -12
-35 -4 -18 10 -21 8 -19 -10 1 -11 9 -25 19 -30 9 -5 15 -15 12 -23 -4 -10 8
-15 40 -20 25 -4 48 -11 51 -17 9 -13 25 -11 23 3 -4 15 60 29 65 14 2 -6 0
-20 -6 -30 -7 -15 -5 -23 14 -37 17 -12 26 -14 31 -6 4 6 4 15 2 19 -3 4 0 8
5 8 6 0 11 -4 11 -9 0 -5 16 -11 35 -13 35 -4 48 8 20 18 -8 4 -15 12 -15 20
0 8 -5 14 -12 14 -6 0 -8 3 -4 7 3 4 24 6 46 5 37 -3 40 -1 40 24 0 21 -3 25
-17 18 -34 -15 -106 -5 -131 18 -24 23 -27 65 -4 60 8 -1 10 2 7 8 -4 7 -34
11 -73 9 -37 -1 -82 2 -99 6 -22 5 -33 4 -33 -4z"/>
<path d="M8178 4269 c-16 -11 -28 -25 -28 -31 0 -5 -7 -16 -15 -24 -8 -8 -19
-33 -26 -56 -8 -33 -8 -49 4 -80 9 -21 11 -40 6 -44 -5 -3 -9 -16 -9 -29 0
-13 -5 -25 -12 -27 -34 -12 100 -139 170 -162 62 -20 162 -32 162 -19 0 6 11
8 24 6 13 -3 27 0 30 6 4 6 1 11 -7 11 -8 0 -17 7 -21 15 -3 9 0 15 10 15 8 0
12 -4 9 -10 -3 -5 3 -10 14 -10 23 0 29 16 9 22 -8 3 -3 10 12 18 23 12 24 12
11 -4 -12 -14 -12 -16 3 -10 11 4 16 1 16 -11 0 -9 -4 -14 -9 -10 -11 6 -26
-13 -17 -22 7 -7 96 65 96 78 0 12 -37 12 -44 0 -4 -5 -1 -11 5 -13 7 -2 5 -9
-5 -18 -10 -7 -16 -9 -15 -4 7 37 -4 60 -33 74 -18 8 -34 22 -36 30 -2 10 0
10 8 -2 6 -10 18 -18 27 -18 14 0 14 2 -3 16 -15 13 -16 15 -2 10 15 -4 16 -2
6 22 -7 15 -15 31 -20 37 -4 5 -8 16 -8 25 0 9 -20 26 -45 38 -57 28 -65 27
-65 0 1 -22 1 -22 12 -3 11 19 13 17 19 -15 9 -42 5 -48 -22 -31 -26 16 -30
12 -31 -30 -1 -19 -6 -37 -12 -41 -6 -4 4 -8 23 -8 25 0 32 -4 28 -14 -3 -8 1
-20 9 -26 10 -9 14 -9 14 -1 0 6 9 11 20 11 21 0 27 -24 12 -48 -7 -9 -15 -6
-36 13 -36 33 -55 32 -63 -6 -4 -21 -10 -28 -20 -25 -8 4 -21 6 -29 6 -12 0
-14 9 -9 43 5 36 2 47 -23 75 -27 33 -29 34 -70 22 -43 -11 -82 -6 -82 10 0
13 39 32 50 25 6 -3 10 -2 10 3 0 5 9 12 20 15 14 4 20 14 20 35 0 16 9 40 20
53 l19 24 1 -22 c0 -13 -4 -23 -10 -23 -18 0 -11 -25 11 -38 12 -8 18 -19 15
-28 -3 -8 1 -14 9 -14 15 0 22 50 8 63 -3 4 -7 28 -7 54 -1 38 -4 47 -16 43
-8 -2 -29 -4 -47 -4 -18 0 -30 -3 -27 -8 3 -4 1 -8 -4 -8 -5 0 -14 11 -20 24
-9 20 -8 25 5 31 10 3 20 -1 25 -10 8 -14 11 -14 24 0 9 8 20 13 25 10 5 -4 9
-1 9 5 0 6 5 8 11 4 7 -4 10 1 7 12 -5 27 -65 29 -100 3z"/>
<path d="M8024 4238 c-15 -24 -29 -36 -37 -32 -7 4 -9 4 -5 -1 4 -4 1 -13 -7
-19 -16 -12 -30 -76 -17 -76 5 0 13 17 19 38 9 32 11 33 12 11 1 -19 6 -26 18
-25 19 1 36 -29 53 -91 6 -26 17 -43 26 -43 14 0 13 19 -2 68 -2 6 1 12 7 12
6 0 6 6 0 19 -6 10 -9 20 -7 22 2 2 6 21 10 42 6 31 4 37 -10 37 -13 0 -14 3
-4 15 7 8 18 15 25 15 7 0 18 6 24 14 9 11 7 14 -12 18 -13 2 -27 0 -33 -6 -9
-11 -39 -79 -46 -106 -3 -8 -7 -10 -11 -4 -3 6 7 38 22 71 22 46 25 60 14 60
-8 0 -26 -18 -39 -39z"/>
<path d="M7974 4106 c-3 -9 -10 -13 -15 -10 -5 3 -9 1 -9 -5 0 -5 6 -12 13
-14 8 -4 8 -6 1 -6 -17 -1 20 -116 53 -166 39 -60 96 -116 111 -110 7 2 11 1
7 -4 -5 -10 36 -43 68 -54 20 -7 21 -3 7 23 -6 12 -18 17 -30 15 -12 -2 -18 0
-15 6 4 5 11 6 17 3 7 -5 9 -2 6 8 -4 8 -1 15 7 15 7 0 11 -7 8 -14 -3 -8 -2
-13 3 -12 5 1 11 0 14 -1 3 -1 19 -3 35 -5 44 -3 76 -15 69 -26 -3 -5 -2 -19
1 -30 6 -17 9 -19 16 -8 6 10 9 11 9 2 0 -19 115 -16 167 3 24 9 43 21 43 26
0 5 4 7 9 4 5 -3 15 2 22 12 13 15 12 16 -3 3 -15 -11 -18 -11 -19 0 -4 40 14
63 39 54 7 -3 11 -1 8 4 -3 5 1 14 9 21 8 7 15 22 15 34 -1 19 -4 17 -32 -14
-18 -19 -37 -35 -43 -35 -5 0 -12 -18 -15 -39 -6 -46 -39 -66 -65 -40 -8 9
-15 19 -15 24 0 5 -31 9 -69 9 -38 0 -82 3 -97 7 -65 16 -133 61 -193 128 -14
16 -38 42 -53 58 -28 29 -36 48 -19 48 5 0 3 21 -3 48 -9 36 -17 48 -34 50
-13 2 -25 -3 -28 -12z"/>
<path d="M6457 4686 c-6 -14 -10 -16 -21 -7 -20 17 -76 -50 -76 -90 0 -36 -16
-44 -66 -30 l-37 10 28 -29 c24 -25 37 -30 88 -32 55 -3 63 0 92 27 18 17 40
36 49 43 9 7 16 18 16 24 0 6 -8 4 -18 -5 -27 -24 -35 -21 -29 12 3 15 2 32
-3 37 -4 5 -10 20 -12 34 -3 22 -4 23 -11 6z"/>
<path d="M5688 3610 c-158 -15 -345 -77 -418 -140 -19 -16 -20 -19 -5 -12 11
6 63 22 115 36 88 23 118 29 223 41 94 12 108 14 119 21 7 4 8 3 4 -4 -9 -14
22 -16 56 -3 13 4 52 11 88 15 36 4 99 13 140 20 l75 13 -70 6 c-138 13 -241
15 -327 7z"/>
<path d="M6950 64 c-15 -27 -30 -32 -30 -9 0 8 -4 15 -10 15 -5 0 -10 -4 -10
-10 0 -5 -4 -10 -10 -10 -5 0 -10 7 -10 16 0 22 -24 12 -28 -12 -6 -29 -22
-42 -22 -16 0 17 -5 21 -25 20 -16 -2 -24 -7 -21 -15 7 -16 -6 -17 -22 -1 -9
9 -16 7 -32 -7 -11 -10 -20 -13 -20 -7 0 7 -4 12 -10 12 -5 0 -10 -9 -10 -20
0 -19 7 -20 124 -20 101 0 125 3 130 15 3 9 18 15 36 15 38 0 40 -17 3 -23
-16 -2 12 -5 60 -6 83 -1 87 0 78 18 -7 13 -18 17 -36 14 -18 -4 -25 -1 -25
11 0 12 -9 16 -35 16 -19 0 -35 4 -35 9 0 21 -28 18 -40 -5z"/>
</g>
</svg>
